<?xml version="1.0" encoding="UTF-8" standalone="no"?>
<!-- Created with Inkscape (http://www.inkscape.org/) -->

<svg
   width="70"
   height="70"
   viewBox="0 0 18.520832 18.520833"
   version="1.1"
   id="svg1"
   xml:space="preserve"
   xmlns="http://www.w3.org/2000/svg"
   xmlns:svg="http://www.w3.org/2000/svg"><defs
     id="defs1"><style
       id="style1">
      .cls-1 {
        fill: #1e3742;
        stroke-width: 0px;
      }
    </style><style
       id="style1-4">
      .cls-1 {
        fill: #2e2e2e;
      }

      .cls-1, .cls-2 {
        stroke-width: 0px;
      }

      .cls-2 {
        fill: #1e3742;
      }
    </style></defs><g
     id="layer1-88"
     transform="matrix(0.52668837,0,0,0.52668837,-92.701843,-122.0309)"><g
       id="layer1-8-2"
       style="display:inline"
       transform="matrix(0.22150985,0,0,0.22150985,164.28733,219.97313)"><circle
         style="display:inline;opacity:1;fill:#000000;stroke-width:0.190907"
         id="path18-4"
         cx="132.29167"
         cy="132.29167"
         r="79.375" /><path
         id="rect11-5"
         style="display:inline;opacity:1;fill:#ffffff;stroke-width:0.264585"
         d="m 89.645448,164.29661 h 16.188232 v 16.84564 H 89.645448 Z m -6.652863,-29.15042 a 23.500207,23.500207 0 0 0 -16.845632,22.49599 v -23.50006 h 16.845632 z m 0,0 v 22.49599 H 66.146953 a 23.500207,23.500207 0 0 1 16.845632,-22.49599 z m 42.645235,44.99197 A 23.500207,23.500207 0 0 1 108.7922,157.64218 v 23.50007 h 16.84562 z m 0,0 V 157.64218 H 108.7922 a 23.500207,23.500207 0 0 0 16.84562,22.49598 z m 32.68297,-5.87831 a 23.500207,23.500207 0 0 1 -6.88336,-16.61722 23.500207,23.500207 0 0 1 2.88823,-11.20149 l -5.41574,-5.41573 -11.91205,11.91152 z m 0,0 11.91154,-11.91204 -15.90667,-15.90667 a 23.500207,23.500207 0 0 0 -2.88823,11.20149 23.500207,23.500207 0 0 0 6.88336,16.61722 z m 23.27167,-39.11321 a 23.500207,23.500207 0 0 1 16.84562,22.49599 v -23.50006 h -16.84562 z m 0,0 v 22.49599 h 16.84562 a 23.500207,23.500207 0 0 0 -16.84562,-22.49599 z m -6.65443,45.99605 a 23.500207,23.500207 0 0 0 23.50005,-23.50006 h -16.84562 a 6.6543291,6.6543291 0 0 1 -6.65443,6.65443 6.6543291,6.6543291 0 0 1 -4.7057,-1.94925 l -11.91154,11.91204 a 23.500207,23.500207 0 0 0 16.61724,6.88284 z m -26.0287,-40.1167 c -4.25266,-4.25267 -10.12768,-6.88298 -16.61708,-6.88298 v 16.84563 c 1.83758,-3e-5 3.5012,0.74479 4.70542,1.94901 m 21.32312,-62.614156 a 23.500207,23.500207 0 0 0 -6.88336,16.617216 23.500207,23.500207 0 0 0 2.88823,11.20149 l -5.41574,5.41573 -11.91205,-11.91152 z m 0,0 11.91154,11.912036 -15.90667,15.90667 a 23.500207,23.500207 0 0 1 -2.88823,-11.20149 23.500207,23.500207 0 0 1 6.88336,-16.617216 z m -26.02854,43.819526 c -12.97869,8e-5 -23.49997,10.52137 -23.50005,23.50006 h 16.84562 c -6e-5,-3.67517 2.97927,-6.65449 6.65443,-6.65444 z m 16.61708,-10.58567 c -4.25266,4.25267 -10.12768,6.88298 -16.61708,6.88298 V 113.5947 c 1.83758,3e-5 3.5012,-0.74479 4.70542,-1.94901 M 106.2637,90.323494 a 23.500207,23.500207 0 0 1 6.88336,16.617216 23.500207,23.500207 0 0 1 -2.88821,11.20149 l 5.41574,5.41573 11.91203,-11.91152 z m 0,0 -11.91152,11.912036 15.90667,15.90667 a 23.500207,23.500207 0 0 0 2.88821,-11.20149 23.500207,23.500207 0 0 0 -6.88336,-16.617216 z M 82.992049,129.43669 A 23.500207,23.500207 0 0 1 66.146417,106.94071 v 23.50006 h 16.845632 z m 0,0 V 106.94071 H 66.146417 a 23.500207,23.500207 0 0 0 16.845632,22.49598 z M 89.646483,83.440649 A 23.500207,23.500207 0 0 0 66.146417,106.94071 h 16.845632 a 6.6543291,6.6543291 0 0 1 6.654434,-6.65443 6.6543291,6.6543291 0 0 1 4.705697,1.94925 L 106.2637,90.323494 A 23.500207,23.500207 0 0 0 89.646483,83.440649 Z M 73.029899,174.25927 c 4.252661,4.25266 10.127682,6.88298 16.617085,6.88298 l -3e-6,-16.84564 c -1.837579,3e-5 -3.501203,-0.74479 -4.705423,-1.94901 m -18.794605,-4.70528 c -10e-7,6.01418 2.29435,12.02836 6.883051,16.61706 l 11.911661,-11.91167 c -1.299388,-1.29934 -1.949082,-3.00236 -1.949082,-4.70539 m 32.682587,-34.08497 c 4.25266,4.25267 10.12767,6.88298 16.61708,6.88298 V 113.5947 c -1.83758,3e-5 -3.50121,-0.74479 -4.70543,-1.94901 m 54.00564,17.791 a 23.500207,23.500207 0 0 0 16.84562,-22.49598 v 23.50006 h -16.84562 z m 0,0 v -22.49598 h 16.84562 a 23.500207,23.500207 0 0 1 -16.84562,22.49598 z m -6.65443,-45.996041 a 23.500207,23.500207 0 0 1 23.50005,23.500061 h -16.84562 a 6.6543291,6.6543291 0 0 0 -6.65443,-6.65443 6.6543291,6.6543291 0 0 0 -4.7057,1.94925 L 158.32079,90.323494 a 23.500207,23.500207 0 0 1 16.61724,-6.882845 z" /></g></g></svg>
